<svg version="1.1" id="Layer_1" xmlns="http://www.w3.org/2000/svg" xmlns:xlink="http://www.w3.org/1999/xlink" x="0px" y="0px"
	 width="100%" viewBox="0 0 144 128" enable-background="new 0 0 144 128" xml:space="preserve">
<path fill="#ffffff" opacity="1.000000" stroke="none" 
	d="
M132.525070,72.591675 
	C132.451401,77.540451 132.340088,82.037361 132.413620,86.531258 
	C132.465591,89.706764 131.132736,91.811043 128.405716,93.414650 
	C113.199730,102.356384 98.001190,111.313057 82.912079,120.449539 
	C79.640961,122.430206 76.898819,122.530525 73.674294,120.565948 
	C58.465755,111.299919 43.223816,102.087387 27.914602,92.989021 
	C24.873158,91.181473 23.520449,89.049011 23.571741,85.396111 
	C23.754087,72.410294 23.698307,59.419113 23.549404,46.432064 
	C23.510653,43.052216 24.645809,40.876255 27.577999,39.122799 
	C42.575798,30.154078 57.508663,21.075642 72.399773,11.930602 
	C75.463959,10.048801 78.160362,10.070416 81.241196,11.859344 
	C97.072586,21.052065 112.959709,30.148968 128.845657,39.247391 
	C130.823212,40.379993 132.372437,41.616482 132.376236,44.199097 
	C132.389999,53.512310 132.495560,62.825390 132.525070,72.591675 
M37.689522,85.093628 
	C34.551460,88.927750 35.503925,91.392555 39.968773,93.360817 
	C43.599880,94.961517 47.013515,97.112846 50.371239,99.258423 
	C53.105011,101.005310 55.510101,100.917244 58.239006,99.247345 
	C71.995338,90.829399 85.779175,82.455101 99.629822,74.193687 
	C102.439438,72.517853 102.624527,70.929642 101.107697,68.159782 
	C93.282730,53.870842 85.647202,39.478252 77.907555,25.142351 
	C77.234772,23.896179 76.864044,22.283060 74.512016,21.795580 
	C62.415543,42.598217 50.241016,63.535072 37.689522,85.093628 
M62.023090,104.049477 
	C59.691120,105.885841 61.825935,106.459602 62.973541,107.150208 
	C66.964943,109.552132 71.084595,111.750572 74.991348,114.279892 
	C77.330490,115.794304 79.249222,115.440521 81.432632,114.117661 
	C95.236305,105.754471 109.074059,97.447517 122.896706,89.115616 
	C124.477364,88.162834 126.369919,87.157204 126.425026,85.180763 
	C126.603264,78.789536 126.491547,72.390221 126.491547,64.682541 
	C104.461906,78.128029 83.507072,90.917526 62.023090,104.049477 
M93.321259,41.244911 
	C98.222862,50.253326 103.124466,59.261742 108.236549,68.656998 
	C113.242691,65.641884 117.765152,62.903534 122.301964,60.189159 
	C128.746460,56.333412 128.735626,46.533108 122.262627,42.789059 
	C114.345123,38.209503 106.481361,33.531509 98.471413,29.119276 
	C93.461098,26.359367 88.900650,22.720659 82.175064,20.356024 
	C86.152512,27.785450 89.576851,34.181721 93.321259,41.244911 
M62.996632,29.602894 
	C63.972958,27.768782 64.949280,25.934668 65.925606,24.100555 
	C54.247158,30.283281 43.212540,37.037457 32.145050,43.737320 
	C29.633272,45.257854 29.292988,47.526077 29.309330,50.163628 
	C29.374229,60.637665 29.314068,71.112457 29.367334,81.586632 
	C29.372406,82.583908 28.762011,83.927582 30.800716,84.789703 
	C41.402676,66.619759 52.021175,48.421467 62.996632,29.602894 
z"/>
</svg>